<svg width="40" height="33" viewBox="0 0 40 33" fill="none" xmlns="http://www.w3.org/2000/svg">
<path d="M15.55 24.3447L24.45 24.3447C29.9833 24.3447 32.2333 21.2722 29.4833 17.5197L28.25 15.8462C27.95 15.4408 27.4 15.1924 26.8 15.1924L13.2 15.1924C12.6 15.1924 12.05 15.4408 11.75 15.8462L10.5166 17.5197C7.76662 21.2722 10.0166 24.3447 15.55 24.3447Z" fill="#8121E1"/>
<path opacity="0.4" d="M14.6501 13.8848L25.3668 13.8848C26.0168 13.8848 26.4168 13.3356 26.0834 12.9042L25.0168 11.4659C22.2668 7.7135 17.7334 7.7135 14.9834 11.4659L13.9168 12.9042C13.6001 13.3356 14.0001 13.8848 14.6501 13.8848Z" fill="#8121E1"/>
</svg>
