<svg width="40" height="40" viewBox="0 0 40 40" fill="none" xmlns="http://www.w3.org/2000/svg">
<path d="M24.45 10L15.55 10C10.0167 10 7.76671 13.9167 10.5167 18.7L11.75 20.8333C12.05 21.35 12.6 21.6667 13.2 21.6667L26.8 21.6667C27.4 21.6667 27.95 21.35 28.25 20.8333L29.4834 18.7C32.2334 13.9167 29.9834 10 24.45 10Z" fill="#EEEEEE"/>
<path opacity="0.4" d="M25.3499 23.3335L14.6332 23.3335C13.9832 23.3335 13.5832 24.0335 13.9166 24.5835L14.9832 26.4168C17.7332 31.2002 22.2666 31.2002 25.0166 26.4168L26.0832 24.5835C26.3999 24.0335 25.9999 23.3335 25.3499 23.3335Z" fill="#EEEEEE"/>
</svg>
