<svg width="105" height="45" viewBox="0 0 105 45" fill="none" xmlns="http://www.w3.org/2000/svg">
<path d="M22.4447 0H32.2482C32.5706 0.320513 56.3053 26.1538 62.3679 32.7564L63.7224 34.2308C66.8827 30.8333 80.7494 15.7051 88.6824 7.05128H48.6302L42.1806 0.0641017V0H105L63.7224 44.8718C59.2076 40 32.5061 11.0256 22.4447 0ZM8.90049 9.87179C5.80467 6.47436 2.83784 3.26923 0 0.128203H9.73894C15.4791 6.34615 20.8968 12.3077 26.121 18.0128C35.0215 27.7564 45.2764 38.8462 50.8231 45H41.0841C39.9877 43.7179 23.9926 26.5385 8.90049 9.87179Z" fill="white"/>
</svg>
