<svg width="75" height="34" viewBox="0 0 75 34" fill="none" xmlns="http://www.w3.org/2000/svg">
<path d="M16.0319 0.928574H23.0344C23.2647 1.15751 40.2181 19.6099 44.5485 24.326L45.516 25.3791C47.7733 22.9524 57.6781 12.1465 63.3446 5.9652H34.7359L30.129 0.974361V0.928574H75L45.516 32.9799C42.2912 29.5 23.2187 8.80403 16.0319 0.928574ZM6.35749 7.97985C4.14619 5.55312 2.02703 3.26374 0 1.02015H6.95639C11.0565 5.46154 14.9263 9.71978 18.6579 13.7949C25.0154 20.7546 32.3403 28.6758 36.3022 33.0714H29.3458C28.5627 32.1557 17.1376 19.8846 6.35749 7.97985Z" fill="#8121E1"/>
</svg>
