<svg width="39" height="39" viewBox="0 0 39 39" fill="none" xmlns="http://www.w3.org/2000/svg">
<path d="M34.3381 28.1666L31.6719 28.7968C31.074 28.9422 30.6054 29.3947 30.4761 29.9926L29.9106 32.368C29.6035 33.6607 27.9553 34.0485 27.0989 33.0305L19.391 24.1753L11.6832 33.0466C10.8267 34.0646 9.17852 33.6768 8.8715 32.3841L8.30593 30.0087C8.1605 29.4108 7.69189 28.9422 7.11017 28.813L4.44392 28.1828C3.21584 27.8919 2.77954 26.3568 3.66829 25.468L9.97031 19.166C11.7155 21.7515 14.4787 23.5775 17.6943 24.0461C18.2437 24.143 18.8093 24.1915 19.391 24.1915C19.9728 24.1915 20.5383 24.143 21.0877 24.0461C24.3034 23.5775 27.0666 21.7515 28.8118 19.166L35.1138 25.468C36.0025 26.3406 35.5662 27.8757 34.3381 28.1666Z" fill="#8121E1"/>
<g filter="url(#filter0_b_290_604)">
<path d="M30.7022 14.543C30.7022 16.8861 30.0074 19.0353 28.8116 20.8289C27.0665 23.4144 24.3033 25.2403 21.0876 25.7089C20.5382 25.8059 19.9726 25.8543 19.3909 25.8543C18.8092 25.8543 18.2436 25.8059 17.6942 25.7089C14.4786 25.2403 11.7154 23.4144 9.9702 20.8289C8.77443 19.0353 8.07959 16.8861 8.07959 14.543C8.07959 8.28947 13.1374 3.23169 19.3909 3.23169C25.6445 3.23169 30.7022 8.28947 30.7022 14.543Z" fill="#8121E1" fill-opacity="0.2"/>
</g>
<path d="M20.3282 9.66308L21.2816 11.5698C21.4108 11.8284 21.7502 12.0869 22.0572 12.1354L23.7862 12.4263C24.885 12.604 25.1436 13.412 24.3518 14.2038L23.0106 15.5449C22.7843 15.7712 22.6551 16.2075 22.7359 16.5307L23.1237 18.1951C23.4307 19.5039 22.7359 20.021 21.5724 19.3262L19.9565 18.3728C19.6657 18.195 19.1809 18.195 18.89 18.3728L17.2741 19.3262C16.1107 20.0048 15.4158 19.5039 15.7228 18.1951L16.1107 16.5307C16.1753 16.2237 16.0622 15.7712 15.836 15.5449L14.4948 14.2038C13.703 13.412 13.9615 12.6202 15.0603 12.4263L16.7893 12.1354C17.0802 12.0869 17.4195 11.8284 17.5488 11.5698L18.5022 9.66308C18.9708 8.62891 19.8111 8.62891 20.3282 9.66308Z" fill="#8121E1"/>
<defs>
<filter id="filter0_b_290_604" x="-4.92041" y="-9.76831" width="48.6226" height="48.6226" filterUnits="userSpaceOnUse" color-interpolation-filters="sRGB">
<feFlood flood-opacity="0" result="BackgroundImageFix"/>
<feGaussianBlur in="BackgroundImageFix" stdDeviation="6.5"/>
<feComposite in2="SourceAlpha" operator="in" result="effect1_backgroundBlur_290_604"/>
<feBlend mode="normal" in="SourceGraphic" in2="effect1_backgroundBlur_290_604" result="shape"/>
</filter>
</defs>
</svg>
